<svg width="26" height="26" viewBox="0 0 26 26" fill="none" xmlns="http://www.w3.org/2000/svg">
<path d="M13 1C6.38331 1 1 6.38331 1 13C1 19.6167 6.38331 25 13 25C19.6167 25 25 19.6167 25 13C25 6.38331 19.6167 1 13 1ZM13 23.9786C6.94632 23.9786 2.02135 19.0532 2.02135 13C2.02135 6.94677 6.94632 2.02135 13 2.02135C19.0537 2.02135 23.9786 6.94677 23.9786 13C23.9786 19.0532 19.0537 23.9786 13 23.9786Z" fill="black" stroke="black" stroke-width="0.5"/>
<path d="M13.0001 5.59562C12.7181 5.59562 12.4894 5.82418 12.4894 6.1063V19.8937C12.4894 20.1756 12.7179 20.4043 13.0001 20.4043C13.282 20.4043 13.5107 20.1758 13.5107 19.8937V6.1063C13.5107 5.82434 13.282 5.59562 13.0001 5.59562Z" fill="black" stroke="black" stroke-width="0.5"/>
<path d="M19.8937 12.4893H6.10632C5.82436 12.4893 5.59564 12.7179 5.59564 13C5.59564 13.2819 5.8242 13.5107 6.10632 13.5107H19.8937C20.1756 13.5107 20.4044 13.2821 20.4044 13C20.4044 12.718 20.1756 12.4893 19.8937 12.4893Z" fill="black" stroke="black" stroke-width="0.5"/>
</svg>
