<svg width="32" height="35" viewBox="0 0 32 35" fill="none" xmlns="http://www.w3.org/2000/svg">
<path d="M9.93621 13.5414C10.0616 12.8195 10.9384 12.8195 11.0638 13.5414C11.8332 17.9703 14.7752 21.4315 18.5398 22.3367C19.1534 22.4843 19.1534 23.5157 18.5398 23.6633C14.7752 24.5685 11.8332 28.0297 11.0638 32.4586C10.9384 33.1805 10.0616 33.1805 9.93621 32.4586C9.16676 28.0297 6.22478 24.5685 2.46022 23.6633C1.84659 23.5157 1.8466 22.4843 2.46022 22.3367C6.22478 21.4315 9.16676 17.9703 9.93621 13.5414Z" fill="black" stroke="white" stroke-width="3"/>
<path d="M24.9561 9.0358C24.9659 8.98807 25.0341 8.98807 25.0439 9.0358C25.5503 11.5135 27.4865 13.4497 29.9642 13.9561C30.0119 13.9659 30.0119 14.0341 29.9642 14.0439C27.4865 14.5503 25.5503 16.4865 25.0439 18.9642C25.0341 19.0119 24.9659 19.0119 24.9561 18.9642C24.4497 16.4865 22.5135 14.5503 20.0358 14.0439C19.9881 14.0341 19.9881 13.9659 20.0358 13.9561C22.5135 13.4497 24.4497 11.5135 24.9561 9.0358Z" stroke="black" stroke-width="3"/>
<path d="M15.393 0.61934C15.528 -0.206447 16.472 -0.206446 16.607 0.619341C16.9052 2.44318 18.0455 3.86849 19.5045 4.24127C20.1652 4.41005 20.1652 5.58995 19.5045 5.75873C18.0455 6.13151 16.9052 7.55682 16.607 9.38066C16.472 10.2064 15.528 10.2064 15.393 9.38066C15.0948 7.55682 13.9545 6.13151 12.4955 5.75873C11.8348 5.58995 11.8348 4.41005 12.4955 4.24127C13.9545 3.86849 15.0948 2.44318 15.393 0.61934Z" fill="black"/>
</svg>
