<svg width="26" height="26" viewBox="0 0 26 26" fill="none" xmlns="http://www.w3.org/2000/svg">
<path d="M25.7325 0.0330674C25.6534 0.000206406 25.5662 -0.00840622 25.4822 0.0083213C25.3981 0.0250488 25.3209 0.0663633 25.2603 0.127027L22.9667 2.42063L24.573 4.02699C24.6137 4.06713 24.646 4.11492 24.6681 4.16759C24.6902 4.22027 24.7017 4.2768 24.7019 4.33393C24.7021 4.39106 24.6909 4.44766 24.6692 4.50047C24.6474 4.55329 24.6154 4.60127 24.575 4.64167C24.5346 4.68207 24.4866 4.71408 24.4338 4.73586C24.381 4.75764 24.3244 4.76876 24.2672 4.76858C24.2101 4.7684 24.1536 4.75693 24.1009 4.73482C24.0482 4.71271 24.0004 4.6804 23.9603 4.63975L22.3539 3.03339L20.8 4.58729L21.973 5.76032C22.0137 5.80046 22.046 5.84825 22.0681 5.90092C22.0902 5.9536 22.1017 6.01013 22.1019 6.06726C22.1021 6.12438 22.0909 6.18098 22.0692 6.2338C22.0474 6.28662 22.0154 6.3346 21.975 6.375C21.9346 6.4154 21.8866 6.44741 21.8338 6.46919C21.781 6.49097 21.7244 6.50209 21.6672 6.50191C21.6101 6.50173 21.5536 6.49026 21.5009 6.46815C21.4482 6.44604 21.4004 6.41373 21.3603 6.37308L20.1872 5.20005L18.6333 6.75395L20.2397 8.36032C20.2803 8.40046 20.3127 8.44824 20.3348 8.50092C20.3569 8.55359 20.3684 8.61012 20.3685 8.66725C20.3687 8.72438 20.3576 8.78098 20.3358 8.83379C20.314 8.88661 20.282 8.9346 20.2416 8.97499C20.2012 9.01539 20.1533 9.0474 20.1004 9.06918C20.0476 9.09096 19.991 9.10208 19.9339 9.1019C19.8768 9.10173 19.8202 9.09025 19.7676 9.06814C19.7149 9.04603 19.6671 9.01372 19.627 8.97307L18.0206 7.36671L16.4667 8.92061L17.6397 10.0936C17.6803 10.1338 17.7127 10.1816 17.7348 10.2342C17.7569 10.2869 17.7684 10.3434 17.7685 10.4006C17.7687 10.4577 17.7576 10.5143 17.7358 10.5671C17.714 10.6199 17.682 10.6679 17.6416 10.7083C17.6012 10.7487 17.5533 10.7807 17.5004 10.8025C17.4476 10.8243 17.391 10.8354 17.3339 10.8352C17.2768 10.8351 17.2202 10.8236 17.1676 10.8015C17.1149 10.7794 17.0671 10.7471 17.027 10.7064L15.8539 9.53337L14.3 11.0873L15.9064 12.6936C15.947 12.7338 15.9793 12.7816 16.0014 12.8342C16.0235 12.8869 16.035 12.9434 16.0352 13.0006C16.0354 13.0577 16.0243 13.1143 16.0025 13.1671C15.9807 13.2199 15.9487 13.2679 15.9083 13.3083C15.8679 13.3487 15.8199 13.3807 15.7671 13.4025C15.7143 13.4243 15.6577 13.4354 15.6006 13.4352C15.5434 13.435 15.4869 13.4236 15.4342 13.4015C15.3815 13.3794 15.3338 13.347 15.2936 13.3064L13.6872 11.7L12.1333 13.2539L13.3063 14.427C13.347 14.4671 13.3793 14.5149 13.4014 14.5676C13.4235 14.6202 13.435 14.6768 13.4352 14.7339C13.4354 14.791 13.4243 14.8476 13.4025 14.9004C13.3807 14.9533 13.3487 15.0013 13.3083 15.0416C13.2679 15.082 13.2199 15.1141 13.1671 15.1358C13.1143 15.1576 13.0577 15.1687 13.0006 15.1686C12.9434 15.1684 12.8869 15.1569 12.8342 15.1348C12.7815 15.1127 12.7338 15.0804 12.6936 15.0397L11.5206 13.8667L9.96664 15.4206L11.573 17.027C11.6137 17.0671 11.646 17.1149 11.6681 17.1676C11.6902 17.2202 11.7017 17.2768 11.7019 17.3339C11.702 17.391 11.6909 17.4476 11.6691 17.5004C11.6474 17.5533 11.6154 17.6012 11.575 17.6416C11.5346 17.682 11.4866 17.714 11.4338 17.7358C11.3809 17.7576 11.3243 17.7687 11.2672 17.7686C11.2101 17.7684 11.1536 17.7569 11.1009 17.7348C11.0482 17.7127 11.0004 17.6804 10.9603 17.6397L9.35388 16.0334L7.79997 17.5873L8.97301 18.7603C9.01366 18.8004 9.04597 18.8482 9.06808 18.9009C9.0902 18.9536 9.10167 19.0101 9.10185 19.0672C9.10203 19.1244 9.09092 19.181 9.06914 19.2338C9.04736 19.2866 9.01535 19.3346 8.97496 19.375C8.93456 19.4154 8.88657 19.4474 8.83376 19.4692C8.78094 19.4909 8.72434 19.5021 8.66722 19.5019C8.61009 19.5017 8.55356 19.4902 8.50088 19.4681C8.4482 19.446 8.40042 19.4137 8.36027 19.373L7.18721 18.2L5.6333 19.7539L7.23967 21.3603C7.28032 21.4004 7.31263 21.4482 7.33475 21.5009C7.35686 21.5536 7.36834 21.6101 7.36852 21.6672C7.3687 21.7243 7.35758 21.7809 7.3358 21.8338C7.31402 21.8866 7.28202 21.9346 7.24162 21.975C7.20122 22.0154 7.15324 22.0474 7.10042 22.0692C7.04761 22.0909 6.99101 22.1021 6.93388 22.1019C6.87675 22.1017 6.82022 22.0902 6.76754 22.0681C6.71487 22.046 6.66708 22.0137 6.62694 21.973L5.02054 20.3667L3.46663 21.9206L4.63967 23.0936C4.68032 23.1338 4.71263 23.1815 4.73474 23.2342C4.75686 23.2869 4.76833 23.3434 4.76851 23.4005C4.7687 23.4577 4.75758 23.5143 4.7358 23.5671C4.71402 23.6199 4.68201 23.6679 4.64162 23.7083C4.60122 23.7487 4.55323 23.7807 4.50042 23.8025C4.44761 23.8243 4.39101 23.8354 4.33388 23.8352C4.27675 23.835 4.22022 23.8236 4.16754 23.8014C4.11486 23.7793 4.06708 23.747 4.02694 23.7064L2.85387 22.5333L0.12693 25.2603C0.0663266 25.3209 0.0250533 25.3981 0.00832992 25.4822C-0.00839347 25.5662 0.000184162 25.6533 0.0329777 25.7325C0.0657713 25.8117 0.121308 25.8794 0.192564 25.927C0.263821 25.9746 0.347597 26 0.433297 26H25.5667C25.6236 26 25.6799 25.9888 25.7325 25.9671C25.7851 25.9453 25.8329 25.9134 25.8732 25.8732C25.9134 25.8329 25.9453 25.7851 25.9671 25.7325C25.9888 25.6799 26 25.6236 26 25.5667V0.433393C26.0001 0.347684 25.9747 0.263886 25.9271 0.192618C25.8795 0.121351 25.8118 0.0658214 25.7325 0.0330674ZM22.1 21.6667C22.1 21.7236 22.0888 21.78 22.0671 21.8325C22.0453 21.8851 22.0134 21.9329 21.9731 21.9732C21.9329 22.0134 21.8851 22.0453 21.8325 22.0671C21.7799 22.0889 21.7236 22.1 21.6667 22.1H12.1333C12.0476 22.1 11.9638 22.0746 11.8926 22.027C11.8213 21.9794 11.7658 21.9117 11.733 21.8325C11.7002 21.7533 11.6916 21.6662 11.7083 21.5822C11.7251 21.4981 11.7663 21.4209 11.8269 21.3603L21.3603 11.827C21.4209 11.7664 21.4981 11.7251 21.5821 11.7084C21.6662 11.6917 21.7533 11.7003 21.8325 11.733C21.9117 11.7658 21.9794 11.8214 22.027 11.8926C22.0746 11.9639 22.1 12.0477 22.1 12.1334V21.6667Z" fill="black"/>
</svg>
