<svg width="12" height="12" viewBox="0 0 12 12" fill="none" xmlns="http://www.w3.org/2000/svg">
<path d="M1.22708 12H9.7101C10.0356 11.9997 10.3477 11.8702 10.5779 11.64C10.8082 11.4098 10.9376 11.0977 10.9379 10.7722V5.86095C10.9379 5.67598 10.788 5.52609 10.603 5.52609C10.4181 5.52609 10.2682 5.67598 10.2682 5.86095V10.7722C10.2681 10.9202 10.2092 11.062 10.1046 11.1666C9.99991 11.2713 9.85809 11.3302 9.7101 11.3303H1.22707C1.07908 11.3302 0.937273 11.2713 0.832619 11.1666C0.727976 11.062 0.669077 10.9202 0.668977 10.7722V2.28915C0.669077 2.14115 0.727976 1.99935 0.832619 1.89469C0.937263 1.79005 1.07908 1.73115 1.22707 1.73105H6.1383C6.32327 1.73105 6.47315 1.58116 6.47315 1.3962C6.47315 1.21123 6.32327 1.06134 6.1383 1.06134H1.22707C0.90158 1.06164 0.589456 1.1911 0.359228 1.4213C0.129 1.65151 -0.000451781 1.96365 -0.000732422 2.28915V10.7722C-0.000433437 11.0977 0.129023 11.4098 0.359228 11.64C0.589433 11.8702 0.901583 11.9997 1.22708 12Z" fill="black"/>
<path d="M3.64518 6.38538L3.59286 7.59186C3.58319 7.80483 3.66122 8.01251 3.80862 8.16658C3.95602 8.32066 4.16001 8.40776 4.3733 8.40756C4.38466 8.40756 4.39592 8.40736 4.40688 8.40686L5.61377 8.35434C5.8092 8.34617 5.99447 8.26475 6.1326 8.12612L10.5555 3.70296L11.7057 2.5532C11.8941 2.36484 12 2.10933 12 1.84282C12 1.57634 11.8941 1.3208 11.7057 1.13244L10.8668 0.293296C10.6782 0.105437 10.4228 -0.000101977 10.1566 7.39404e-08C9.89026 7.39404e-08 9.63485 0.105539 9.44628 0.293602L8.29611 1.44357L3.87269 5.86698H3.87259C3.73456 6.00521 3.65334 6.19018 3.64507 6.38541L3.64518 6.38538ZM9.91981 0.767451H9.91971C10.0505 0.636797 10.2623 0.636697 10.3933 0.767251L11.2322 1.60639H11.2321C11.2949 1.66908 11.3302 1.75419 11.3302 1.84299C11.3302 1.93178 11.2949 2.01689 11.2321 2.07968L10.3186 2.99286L9.0063 1.68045L9.91981 0.767451ZM4.31413 6.41446H4.31403C4.31542 6.38656 4.32708 6.36015 4.34671 6.34032L8.53286 2.15392L9.84527 3.46632L5.65861 7.65298C5.63908 7.67271 5.61267 7.68417 5.58496 7.68527L4.37808 7.73779C4.34648 7.74078 4.31539 7.72872 4.29396 7.7053C4.27204 7.68318 4.26028 7.65278 4.26168 7.62159L4.31413 6.41446Z" fill="black"/>
</svg>
