<svg width="18" height="15" viewBox="0 0 18 15" fill="none" xmlns="http://www.w3.org/2000/svg">
<rect width="18" height="14" rx="5" fill="#F5F3F3"/>
<rect width="18" height="14" rx="5" fill="#F5F3F3"/>
<path fill-rule="evenodd" clip-rule="evenodd" d="M12.5467 2.01251C14.0103 2.4002 15.1493 3.47989 15.5467 4.85626C15.8886 6.17444 15.4211 7.56157 14.3333 8.45626L9.48665 12.9438C9.22742 13.182 8.81255 13.182 8.55332 12.9438L3.66665 8.45626C2.57891 7.56157 2.11139 6.17444 2.45332 4.85626C2.85066 3.47989 3.98968 2.4002 5.45332 2.01251C6.68378 1.69632 8.00131 1.9494 8.99999 2.69376C9.99866 1.9494 11.3162 1.69632 12.5467 2.01251ZM8.99999 11.625L13.42 7.56251C14.1449 6.9662 14.4471 6.03646 14.2 5.16251C13.9168 4.2227 13.1349 3.48729 12.1333 3.21876C11.1484 2.97538 10.1008 3.26424 9.41332 3.96876C9.15409 4.20697 8.73921 4.20697 8.47999 3.96876C7.95897 3.45009 7.23959 3.14661 6.47999 3.12501C6.25431 3.12835 6.03011 3.15988 5.81332 3.21876C4.81178 3.48729 4.02986 4.2227 3.74665 5.16251C3.51216 6.04608 3.83562 6.97766 4.57999 7.56251L8.99999 11.625Z" fill="#E83636"/>
<rect x="5" y="3" width="8" height="6" fill="#E83636"/>
<path d="M15 5.5C15 6.88071 13.8807 8 12.5 8C11.1193 8 10 6.88071 10 5.5C10 4.11929 11.1193 3 12.5 3C13.8807 3 15 4.11929 15 5.5Z" fill="#EB3030"/>
<path d="M15 5.5C15 6.88071 13.8807 8 12.5 8C11.1193 8 10 6.88071 10 5.5C10 4.11929 11.1193 3 12.5 3C13.8807 3 15 4.11929 15 5.5Z" fill="#EB3030"/>
<path d="M15 5.5C15 6.88071 13.8807 8 12.5 8C11.1193 8 10 6.88071 10 5.5C10 4.11929 11.1193 3 12.5 3C13.8807 3 15 4.11929 15 5.5Z" fill="#EB3030"/>
<circle cx="5.5" cy="5.5" r="2.5" fill="#EB3030"/>
<path d="M9.00861 12.0458L5.25465 8.34667L12.6602 8.24554L9.00861 12.0458Z" fill="#EB3030"/>
</svg>
