<svg width="16" height="15" viewBox="0 0 16 15" fill="none" xmlns="http://www.w3.org/2000/svg">
<path fill-rule="evenodd" clip-rule="evenodd" d="M11.5468 2.01249C13.0104 2.40019 14.1494 3.47988 14.5468 4.85624C14.8887 6.17443 14.4212 7.56156 13.3334 8.45624L8.48677 12.9437C8.22755 13.182 7.81267 13.182 7.55344 12.9437L2.66677 8.45624C1.57903 7.56156 1.11152 6.17443 1.45344 4.85624C1.85078 3.47988 2.9898 2.40019 4.45344 2.01249C5.6839 1.69631 7.00143 1.94938 8.00011 2.69374C8.99879 1.94938 10.3163 1.69631 11.5468 2.01249ZM8.00011 11.625L12.4201 7.56249C13.145 6.96619 13.4472 6.03644 13.2001 5.16249C12.9169 4.22269 12.135 3.48728 11.1334 3.21874C10.1486 2.97536 9.10095 3.26422 8.41344 3.96874C8.15421 4.20696 7.73934 4.20696 7.48011 3.96874C6.95909 3.45008 6.23972 3.14659 5.48011 3.12499C5.25443 3.12833 5.03023 3.15986 4.81344 3.21874C3.8119 3.48728 3.02998 4.22269 2.74677 5.16249C2.51228 6.04606 2.83575 6.97765 3.58011 7.56249L8.00011 11.625Z" fill="#231F20"/>
</svg>
