<svg width="14" height="17" viewBox="0 0 14 17" fill="none" xmlns="http://www.w3.org/2000/svg">
<path d="M6.9999 1.00042C3.69097 1.00042 1 3.52323 1 6.62539V7.0003C1 8.29806 1.43645 9.56355 2.24685 10.6154L6.04221 15.54C6.26426 15.8284 6.62077 16 7.00007 16C7.38204 16 7.7407 15.8223 7.95632 15.5269L11.8 10.2593C12.5812 9.18884 13 7.92196 13 6.62497C13 3.52282 10.309 1 7.0001 1L6.9999 1.00042ZM6.9999 1.75037C9.87649 1.75037 12.1999 3.92855 12.1999 6.62545C12.1999 7.77141 11.8308 8.89065 11.1406 9.83635L7.29516 15.1039C7.22807 15.1958 7.11865 15.2504 6.99985 15.2504C6.87678 15.2504 6.76254 15.1961 6.69049 15.1025L2.89512 10.1763C2.18302 9.25196 1.79974 8.14066 1.79974 7.00046V6.62555C1.79974 3.92871 4.12311 1.75047 6.99977 1.75047L6.9999 1.75037Z" fill="black" stroke="black" stroke-width="0.1"/>
<path d="M6.99989 3.62521C5.23729 3.62521 3.79999 4.97283 3.79999 6.62516C3.79999 8.27761 5.23743 9.6251 6.99989 9.6251C8.76249 9.6251 10.1998 8.27748 10.1998 6.62516C10.1998 4.9727 8.76235 3.62521 6.99989 3.62521ZM6.99989 4.37517C8.33005 4.37517 9.39985 5.37812 9.39985 6.62516C9.39985 7.8722 8.33005 8.87514 6.99989 8.87514C5.66973 8.87514 4.59993 7.8722 4.59993 6.62516C4.59993 5.37812 5.66973 4.37517 6.99989 4.37517Z" fill="black" stroke="black" stroke-width="0.1"/>
</svg>
