<svg width="20" height="17" viewBox="0 0 20 17" fill="none" xmlns="http://www.w3.org/2000/svg">
<path d="M14.0625 10.0833H13.1737L12.8588 9.83583C13.9613 8.79083 14.625 7.43417 14.625 5.95833C14.625 2.6675 11.3512 0 7.3125 0C3.27375 0 0 2.6675 0 5.95833C0 9.24917 3.27375 11.9167 7.3125 11.9167C9.12375 11.9167 10.7887 11.3758 12.0712 10.4775L12.375 10.7342V11.4583L18 16.0325L19.6763 14.6667L14.0625 10.0833ZM7.3125 10.0833C4.51125 10.0833 2.25 8.24083 2.25 5.95833C2.25 3.67583 4.51125 1.83333 7.3125 1.83333C10.1138 1.83333 12.375 3.67583 12.375 5.95833C12.375 8.24083 10.1138 10.0833 7.3125 10.0833Z" fill="#BBBBBB"/>
</svg>
