<svg width="375" height="362" viewBox="0 0 375 362" fill="none" xmlns="http://www.w3.org/2000/svg">
<path fill-rule="evenodd" clip-rule="evenodd" d="M334.075 2.81129C379.237 -10.8801 425.117 28.4553 463.225 55.713C498.345 80.8337 523.088 116.39 544.497 153.322C563.961 186.899 590.756 223.689 582.445 261.376C573.578 301.585 512.686 314.072 500.37 353.412C489.351 388.61 522.304 423.989 520.04 460.716C516.667 515.411 538.909 606.984 483.981 619.204C420.704 633.281 398.953 500.051 334.075 502.088C265.855 504.23 247.406 622.731 179.433 628.765C126.797 633.437 95.2409 567.411 63.8261 526.076C33.0334 485.561 14.3235 438.972 -1.31683 390.943C-17.8792 340.082 -40.1262 288.092 -30.791 235.52C-21.3539 182.375 -0.119244 118.055 50.8967 96.9012C109.823 72.4668 178.022 143.939 238.642 123.797C288.729 107.155 283.543 18.1305 334.075 2.81129Z" fill="#A89294"/>
</svg>
