<svg width="375" height="416" viewBox="0 0 375 416" fill="none" xmlns="http://www.w3.org/2000/svg">
<path fill-rule="evenodd" clip-rule="evenodd" d="M35.9986 -73.0476C72.2947 -72.4458 107.461 -101.583 141.601 -90.8051C175.126 -80.2213 175.453 -32.2004 207.659 -18.8536C273.944 8.61672 374.888 -26.6974 419.323 24.2894C454.282 64.4037 410.063 131.082 369.834 167.235C328.532 204.352 256.222 193.162 204.063 217.737C174.756 231.546 153.913 255.071 133.975 278.363C96.8448 321.739 95.5477 398.957 35.9986 414.072C-15.0673 427.034 -59.5644 371.682 -93.8698 336.196C-123.341 305.711 -114.507 256.449 -145.059 226.786C-178.409 194.408 -273.38 205.832 -272.999 162.284C-272.559 111.936 -151.065 114.818 -143.644 64.8874C-135.026 6.90092 -260.341 -34.1606 -235.721 -88.5374C-215.329 -133.579 -126.898 -97.4945 -71.5531 -94.3394C-34.4053 -92.2218 -1.22156 -73.6647 35.9986 -73.0476Z" fill="#A89294"/>
</svg>
