<svg width="91" height="91" viewBox="0 0 91 91" fill="none" xmlns="http://www.w3.org/2000/svg">
<path d="M40.6298 4.71055C43.3454 2.08398 47.6546 2.08398 50.3702 4.71055C52.2981 6.57534 55.1217 7.1755 57.6414 6.25611C61.1906 4.96114 65.1272 6.71385 66.5397 10.2179C67.5425 12.7056 69.8778 14.4023 72.5537 14.5873C76.3227 14.8478 79.2061 18.0502 79.0712 21.8258C78.9755 24.5063 80.4188 27.0062 82.7881 28.2636C86.1253 30.0346 87.4569 34.1329 85.798 37.5272C84.6203 39.937 84.922 42.8078 86.5751 44.9202C88.9034 47.8954 88.453 52.181 85.5569 54.6071C83.5008 56.3296 82.6088 59.075 83.2598 61.677C84.1767 65.3421 82.0221 69.0739 78.3896 70.1124C75.8107 70.8497 73.8792 72.9949 73.4155 75.6367C72.7624 79.3579 69.2762 81.8907 65.5354 81.362C62.8795 80.9866 60.2425 82.1607 58.7443 84.3855C56.6342 87.5193 52.4192 88.4152 49.2169 86.4107C46.9433 84.9875 44.0567 84.9875 41.7831 86.4107C38.5808 88.4152 34.3658 87.5193 32.2557 84.3855C30.7575 82.1607 28.1205 80.9866 25.4646 81.362C21.7238 81.8907 18.2376 79.3579 17.5845 75.6367C17.1208 72.9949 15.1893 70.8497 12.6104 70.1124C8.97792 69.0739 6.82333 65.3421 7.74022 61.677C8.39119 59.075 7.49917 56.3296 5.44307 54.6071C2.54704 52.181 2.0966 47.8954 4.42493 44.9202C6.07798 42.8078 6.37971 39.937 5.20197 37.5272C3.54311 34.1329 4.87472 30.0346 8.21189 28.2636C10.5812 27.0062 12.0245 24.5063 11.9288 21.8258C11.7939 18.0502 14.6773 14.8478 18.4463 14.5873C21.1222 14.4023 23.4575 12.7056 24.4603 10.2179C25.8728 6.71385 29.8094 4.96114 33.3586 6.25611C35.8783 7.1755 38.7019 6.57534 40.6298 4.71055Z" fill="#9C6644"/>
<path d="M26.1608 44.9481L37.8062 58.7937C38.1617 59.2164 38.7926 59.2709 39.2152 58.9154L68.2129 34.5257" stroke="white" stroke-width="4"/>
</svg>
