<svg width="240" height="240" viewBox="0 0 240 240" fill="none" xmlns="http://www.w3.org/2000/svg">
<path d="M198.75 198.75V129.053L129.052 198.75H198.75Z" fill="#A89294"/>
<path d="M237.685 15.2868C237 15.0025 236.246 14.9279 235.519 15.0727C234.791 15.2174 234.123 15.575 233.599 16.0999L213.75 35.9484L227.651 49.8495C228.003 50.1969 228.283 50.6104 228.474 51.0663C228.665 51.5221 228.765 52.0113 228.766 52.5057C228.768 53.0001 228.672 53.4899 228.483 53.9469C228.295 54.404 228.018 54.8193 227.668 55.1689C227.318 55.5184 226.903 55.7955 226.446 55.9839C225.989 56.1724 225.499 56.2687 225.005 56.2671C224.51 56.2656 224.021 56.1663 223.565 55.9749C223.11 55.7836 222.696 55.504 222.349 55.1522L208.447 41.2511L195 54.6983L205.151 64.8495C205.503 65.1968 205.782 65.6103 205.974 66.0662C206.165 66.522 206.264 67.0112 206.266 67.5056C206.268 68 206.171 68.4898 205.983 68.9469C205.794 69.4039 205.518 69.8192 205.168 70.1688C204.818 70.5184 204.403 70.7954 203.946 70.9839C203.489 71.1723 202.999 71.2686 202.505 71.267C202.01 71.2655 201.521 71.1662 201.065 70.9749C200.609 70.7835 200.196 70.5039 199.849 70.1522L189.697 60.001L176.25 73.4482L190.151 87.3493C190.503 87.6967 190.782 88.1102 190.974 88.5661C191.165 89.0219 191.264 89.5111 191.266 90.0055C191.268 90.4999 191.171 90.9897 190.983 91.4467C190.794 91.9038 190.517 92.3191 190.168 92.6687C189.818 93.0182 189.403 93.2952 188.946 93.4837C188.489 93.6722 187.999 93.7685 187.505 93.7669C187.01 93.7654 186.521 93.6661 186.065 93.4747C185.609 93.2834 185.196 93.0038 184.848 92.652L170.947 78.7509L157.5 92.1981L167.651 102.349C168.003 102.697 168.282 103.11 168.474 103.566C168.665 104.022 168.764 104.511 168.766 105.005C168.767 105.5 168.671 105.99 168.483 106.447C168.294 106.904 168.017 107.319 167.668 107.669C167.318 108.018 166.903 108.295 166.446 108.484C165.989 108.672 165.499 108.768 165.005 108.767C164.51 108.765 164.021 108.666 163.565 108.475C163.109 108.283 162.696 108.004 162.348 107.652L152.197 97.5008L138.75 110.948L152.651 124.849C153.003 125.196 153.282 125.61 153.474 126.066C153.665 126.522 153.764 127.011 153.766 127.505C153.767 128 153.671 128.489 153.483 128.947C153.294 129.404 153.017 129.819 152.668 130.168C152.318 130.518 151.903 130.795 151.446 130.984C150.989 131.172 150.499 131.268 150.005 131.267C149.51 131.265 149.021 131.166 148.565 130.975C148.109 130.783 147.696 130.504 147.348 130.152L133.447 116.251L119.999 129.698L130.151 139.849C130.503 140.196 130.782 140.61 130.973 141.066C131.165 141.522 131.264 142.011 131.266 142.505C131.267 143 131.171 143.489 130.983 143.946C130.794 144.404 130.517 144.819 130.168 145.168C129.818 145.518 129.403 145.795 128.946 145.983C128.489 146.172 127.999 146.268 127.504 146.267C127.01 146.265 126.521 146.166 126.065 145.974C125.609 145.783 125.196 145.504 124.848 145.152L114.697 135.001L101.249 148.448L115.151 162.349C115.502 162.696 115.782 163.11 115.973 163.566C116.165 164.022 116.264 164.511 116.266 165.005C116.267 165.499 116.171 165.989 115.983 166.446C115.794 166.903 115.517 167.319 115.167 167.668C114.818 168.018 114.403 168.295 113.946 168.483C113.489 168.672 112.999 168.768 112.504 168.767C112.01 168.765 111.521 168.666 111.065 168.474C110.609 168.283 110.196 168.003 109.848 167.652L95.9466 153.75L82.4993 167.198L92.6506 177.349C93.0023 177.696 93.282 178.11 93.4733 178.566C93.6647 179.021 93.764 179.511 93.7655 180.005C93.7671 180.499 93.6709 180.989 93.4824 181.446C93.294 181.903 93.017 182.319 92.6674 182.668C92.3178 183.018 91.9025 183.295 91.4455 183.483C90.9884 183.672 90.4986 183.768 90.0042 183.766C89.5099 183.765 89.0207 183.666 88.5648 183.474C88.1089 183.283 87.6954 183.003 87.348 182.652L77.1965 172.5L63.7492 185.948L77.6505 199.849C78.0023 200.196 78.2819 200.61 78.4732 201.065C78.6646 201.521 78.7639 202.011 78.7655 202.505C78.7671 202.999 78.6708 203.489 78.4824 203.946C78.2939 204.403 78.0169 204.818 77.6673 205.168C77.3177 205.518 76.9025 205.795 76.4454 205.983C75.9884 206.172 75.4986 206.268 75.0042 206.266C74.5098 206.265 74.0206 206.165 73.5647 205.974C73.1089 205.783 72.6953 205.503 72.3479 205.151L58.4464 191.25L44.9991 204.697L55.1504 214.849C55.5022 215.196 55.7818 215.61 55.9731 216.065C56.1645 216.521 56.2638 217.01 56.2654 217.505C56.267 217.999 56.1707 218.489 55.9823 218.946C55.7938 219.403 55.5168 219.818 55.1672 220.168C54.8176 220.518 54.4024 220.795 53.9453 220.983C53.4883 221.172 52.9985 221.268 52.5041 221.266C52.0097 221.265 51.5205 221.165 51.0646 220.974C50.6088 220.783 50.1952 220.503 49.8479 220.151L39.6963 210L16.0977 233.599C15.5732 234.123 15.2161 234.791 15.0714 235.519C14.9266 236.246 15.0009 237 15.2847 237.685C15.5684 238.37 16.0491 238.956 16.6657 239.368C17.2823 239.78 18.0073 240 18.749 240H236.25C236.742 240 237.23 239.903 237.685 239.715C238.14 239.527 238.554 239.251 238.902 238.902C239.251 238.554 239.527 238.141 239.715 237.685C239.903 237.23 240 236.743 240 236.25V18.7512C240.001 18.0095 239.781 17.2843 239.369 16.6676C238.957 16.0508 238.371 15.5703 237.685 15.2868ZM206.25 202.5C206.25 202.993 206.153 203.48 205.965 203.936C205.777 204.391 205.5 204.804 205.152 205.152C204.804 205.501 204.39 205.777 203.935 205.965C203.48 206.154 202.992 206.25 202.5 206.25H119.999C119.258 206.25 118.533 206.03 117.916 205.618C117.3 205.206 116.819 204.621 116.535 203.935C116.251 203.25 116.177 202.496 116.322 201.769C116.467 201.041 116.824 200.373 117.348 199.849L199.849 117.349C200.373 116.825 201.041 116.468 201.768 116.323C202.496 116.178 203.25 116.253 203.935 116.536C204.62 116.82 205.206 117.301 205.618 117.917C206.03 118.534 206.25 119.259 206.25 120.001V202.5Z" fill="#A89294"/>
<path d="M25.2329 169.292L35.7416 165.79C37.3928 162.25 37.9202 158.289 37.2529 154.44C36.5857 150.592 34.7558 147.04 32.0095 144.262C30.2831 142.512 28.2257 141.124 25.9572 140.178C23.6887 139.231 21.2545 138.746 18.7965 138.751H18.7489C15.8932 138.78 13.0725 139.382 10.4544 140.523L6.96558 150.992C8.56977 151.411 10.1285 151.988 11.6187 152.714C14.9374 154.349 17.8687 156.674 20.2165 159.532C22.5644 162.391 24.2746 165.719 25.2329 169.292Z" fill="#A89294"/>
<path d="M8.29728 159.438C7.11245 158.867 5.86933 158.425 4.5896 158.121L0.193004 171.314C0.00481051 171.878 -0.0467223 172.478 0.0426538 173.065C0.13203 173.653 0.359755 174.21 0.707054 174.693C1.05435 175.175 1.51128 175.567 2.04016 175.838C2.56903 176.109 3.15472 176.25 3.74892 176.25C4.1524 176.251 4.55327 176.186 4.93546 176.056L18.1108 171.665C17.4685 169.034 16.2569 166.575 14.5613 164.462C12.8658 162.35 10.7275 160.634 8.29728 159.438Z" fill="#A89294"/>
<path d="M170.493 33.5607C174.18 29.8738 176.251 24.8734 176.251 19.6594C176.251 14.4454 174.18 9.44495 170.493 5.7581C166.806 2.07125 161.805 0 156.591 0C151.377 0 146.377 2.07125 142.69 5.7581L131.25 17.1985L159.052 45.001L170.493 33.5607Z" fill="#A89294"/>
<path d="M18.824 131.251C22.2655 131.237 25.6747 131.914 28.8502 133.241C32.0256 134.567 34.9028 136.518 37.3116 138.976C39.9322 141.603 41.9658 144.756 43.278 148.228C44.5902 151.699 45.1513 155.409 44.9241 159.113L133.462 70.6134L134.55 71.7009C135.253 72.3975 136.203 72.7883 137.193 72.7883C138.183 72.7883 139.133 72.3975 139.837 71.7009C140.185 71.354 140.461 70.9419 140.649 70.4883C140.837 70.0346 140.934 69.5483 140.934 69.0572C140.934 68.566 140.837 68.0797 140.649 67.626C140.461 67.1724 140.185 66.7603 139.837 66.4134L138.75 65.3259V65.2884L110.962 37.5011H110.924L109.837 36.4136C109.49 36.0664 109.078 35.791 108.624 35.6031C108.17 35.4152 107.684 35.3185 107.193 35.3185C106.702 35.3185 106.216 35.4152 105.762 35.6031C105.309 35.791 104.897 36.0664 104.549 36.4136C104.202 36.7608 103.927 37.1729 103.739 37.6265C103.551 38.0802 103.454 38.5663 103.454 39.0573C103.454 39.5483 103.551 40.0345 103.739 40.4881C103.927 40.9417 104.202 41.3539 104.549 41.7011L105.637 42.7885L17.1365 131.288C17.699 131.288 18.299 131.251 18.824 131.251Z" fill="#A89294"/>
<path d="M144.037 60.001L148.462 55.6135L149.55 56.701C150.253 57.3976 151.203 57.7884 152.193 57.7884C153.183 57.7884 154.133 57.3976 154.837 56.701C155.185 56.3541 155.461 55.942 155.649 55.4884C155.837 55.0347 155.934 54.5484 155.934 54.0573C155.934 53.5661 155.837 53.0798 155.649 52.6261C155.461 52.1725 155.185 51.7604 154.837 51.4135L153.75 50.326V50.2885L125.962 22.5387L124.837 21.4137C124.136 20.7125 123.185 20.3186 122.193 20.3186C121.202 20.3186 120.251 20.7125 119.549 21.4137C118.848 22.1148 118.454 23.0658 118.454 24.0574C118.454 25.049 118.848 26 119.549 26.7011L120.674 27.8261L116.249 32.2136L144.037 60.001Z" fill="#A89294"/>
</svg>
